<svg width="22" height="22" viewBox="0 0 22 22" fill="none" xmlns="http://www.w3.org/2000/svg">
<path d="M5.15414 14.8403C6.54632 13.818 7.90177 13.0302 8.96542 12.5817C9.49836 12.357 9.95019 12.2208 10.2928 12.1797C10.6492 12.1368 10.8278 12.2028 10.8976 12.2978C10.9674 12.3929 10.9768 12.5831 10.8293 12.9103C10.6874 13.2249 10.4222 13.6152 10.0482 14.0564C9.30183 14.937 8.14433 15.9944 6.75215 17.0166C5.35997 18.0388 4.00452 18.8266 2.94087 19.2752C2.40793 19.4999 1.9561 19.6361 1.61352 19.6772C1.25713 19.72 1.07848 19.6541 1.00869 19.559C0.938912 19.464 0.929455 19.2738 1.07702 18.9466C1.21887 18.632 1.48407 18.2417 1.85806 17.8005C2.60447 16.9199 3.76196 15.8625 5.15414 14.8403Z" fill="#FF9A3E" stroke="black" stroke-width="0.3"/>
<path d="M12.3501 6.28423C12.3501 8.01141 12.1829 9.57023 11.9149 10.693C11.7806 11.2556 11.6229 11.7004 11.4533 12.0009C11.2769 12.3135 11.118 12.4185 11.0001 12.4185C10.8822 12.4185 10.7233 12.3135 10.5469 12.0009C10.3773 11.7004 10.2196 11.2556 10.0853 10.693C9.81733 9.57023 9.65009 8.01141 9.65009 6.28423C9.65009 4.55705 9.81733 2.99824 10.0853 1.87543C10.2196 1.31285 10.3773 0.868064 10.5469 0.567567C10.7233 0.254953 10.8822 0.15 11.0001 0.15C11.118 0.15 11.2769 0.254953 11.4533 0.567567C11.6229 0.868064 11.7806 1.31285 11.9149 1.87543C12.1829 2.99824 12.3501 4.55705 12.3501 6.28423Z" fill="#FF9A3E" stroke="black" stroke-width="0.3"/>
<path d="M16.7019 15.0013C18.0598 16.0687 19.182 17.1634 19.8992 18.068C20.2585 18.5212 20.5108 18.92 20.6422 19.2391C20.779 19.5709 20.7633 19.7607 20.6905 19.8534C20.6176 19.9461 20.4369 20.0062 20.0821 19.9517C19.741 19.8994 19.2939 19.7485 18.7686 19.5064C17.7202 19.0232 16.3913 18.1914 15.0334 17.1241C13.6755 16.0568 12.5533 14.962 11.8361 14.0575C11.4768 13.6042 11.2245 13.2054 11.0931 12.8864C10.9563 12.5545 10.972 12.3647 11.0449 12.272C11.1177 12.1793 11.2984 12.1192 11.6532 12.1737C11.9943 12.2261 12.4414 12.377 12.9667 12.6191C14.0151 13.1022 15.344 13.934 16.7019 15.0013Z" fill="#FF9A3E" stroke="black" stroke-width="0.3"/>
<circle cx="11.0001" cy="12.2" r="0.5" fill="#FF9A3E"/>
</svg>
